<svg width="27" height="21" viewBox="0 0 27 21" fill="none" xmlns="http://www.w3.org/2000/svg">
<path fill-rule="evenodd" clip-rule="evenodd" d="M25.3125 20.625C25.3125 20.625 27 20.625 27 18.9375C27 17.25 25.3125 12.1875 18.5625 12.1875C11.8125 12.1875 10.125 17.25 10.125 18.9375C10.125 20.625 11.8125 20.625 11.8125 20.625H25.3125ZM11.8496 18.9375H25.2754C25.2833 18.9366 25.2912 18.9355 25.299 18.9341L25.3125 18.9307C25.3091 18.4853 25.0307 17.1926 24.03 16.0282C23.0985 14.9364 21.4616 13.875 18.5625 13.875C15.6651 13.875 14.0282 14.9381 13.095 16.0282C12.0943 17.1926 11.8142 18.4869 11.8125 18.9307C11.8249 18.9331 11.8372 18.9354 11.8496 18.9375ZM18.5625 8.8125C19.4576 8.8125 20.316 8.45692 20.949 7.82399C21.5819 7.19105 21.9375 6.33261 21.9375 5.4375C21.9375 4.54239 21.5819 3.68395 20.949 3.05101C20.316 2.41808 19.4576 2.0625 18.5625 2.0625C17.6674 2.0625 16.809 2.41808 16.176 3.05101C15.5431 3.68395 15.1875 4.54239 15.1875 5.4375C15.1875 6.33261 15.5431 7.19105 16.176 7.82399C16.809 8.45692 17.6674 8.8125 18.5625 8.8125ZM23.625 5.4375C23.625 6.10232 23.4941 6.76062 23.2396 7.37484C22.9852 7.98905 22.6123 8.54713 22.1422 9.01723C21.6721 9.48732 21.114 9.86023 20.4998 10.1146C19.8856 10.3691 19.2273 10.5 18.5625 10.5C17.8977 10.5 17.2394 10.3691 16.6252 10.1146C16.011 9.86023 15.4529 9.48732 14.9828 9.01723C14.5127 8.54713 14.1398 7.98905 13.8854 7.37484C13.6309 6.76062 13.5 6.10232 13.5 5.4375C13.5 4.09484 14.0334 2.80717 14.9828 1.85777C15.9322 0.908369 17.2198 0.375 18.5625 0.375C19.9052 0.375 21.1928 0.908369 22.1422 1.85777C23.0916 2.80717 23.625 4.09484 23.625 5.4375ZM11.7045 12.66C11.0295 12.4474 10.3336 12.3077 9.62887 12.2432C9.23287 12.2055 8.83529 12.1869 8.4375 12.1875C1.6875 12.1875 0 17.25 0 18.9375C0 20.0631 0.561938 20.625 1.6875 20.625H8.802C8.55184 20.0982 8.42708 19.5206 8.4375 18.9375C8.4375 17.2331 9.07369 15.4916 10.2769 14.037C10.6869 13.5409 11.1645 13.0768 11.7045 12.66ZM8.3025 13.875C5.48775 13.9087 3.88969 14.955 2.97 16.0282C1.96256 17.1994 1.6875 18.4971 1.6875 18.9375H6.75C6.75 17.1741 7.29506 15.4174 8.3025 13.875ZM2.53125 6.28125C2.53125 4.93859 3.06462 3.65092 4.01402 2.70152C4.96343 1.75212 6.25109 1.21875 7.59375 1.21875C8.93641 1.21875 10.2241 1.75212 11.1735 2.70152C12.1229 3.65092 12.6562 4.93859 12.6562 6.28125C12.6562 7.62391 12.1229 8.91158 11.1735 9.86098C10.2241 10.8104 8.93641 11.3438 7.59375 11.3438C6.25109 11.3438 4.96343 10.8104 4.01402 9.86098C3.06462 8.91158 2.53125 7.62391 2.53125 6.28125ZM7.59375 2.90625C6.69864 2.90625 5.8402 3.26183 5.20726 3.89476C4.57433 4.5277 4.21875 5.38614 4.21875 6.28125C4.21875 7.17636 4.57433 8.0348 5.20726 8.66774C5.8402 9.30067 6.69864 9.65625 7.59375 9.65625C8.48886 9.65625 9.3473 9.30067 9.98024 8.66774C10.6132 8.0348 10.9688 7.17636 10.9688 6.28125C10.9688 5.38614 10.6132 4.5277 9.98024 3.89476C9.3473 3.26183 8.48886 2.90625 7.59375 2.90625Z" fill="white"/>
</svg>
