<svg width="27" height="27" viewBox="0 0 27 27" fill="none" xmlns="http://www.w3.org/2000/svg">
<path fill-rule="evenodd" clip-rule="evenodd" d="M12.9026 1.93374C12.981 1.85516 13.0741 1.79282 13.1766 1.75028C13.2791 1.70775 13.389 1.68585 13.5 1.68585C13.611 1.68585 13.7209 1.70775 13.8234 1.75028C13.9259 1.79282 14.019 1.85516 14.0974 1.93374L24.2224 12.0587C24.3007 12.1372 24.3627 12.2304 24.405 12.3329C24.4473 12.4354 24.469 12.5452 24.4688 12.6561V24.4686C24.4688 24.6924 24.3799 24.907 24.2216 25.0652C24.0634 25.2235 23.8488 25.3124 23.625 25.3124H16.0313C15.8075 25.3124 15.5929 25.2235 15.4346 25.0652C15.2764 24.907 15.1875 24.6924 15.1875 24.4686V17.7186H11.8125V24.4686C11.8125 24.6924 11.7236 24.907 11.5654 25.0652C11.4071 25.2235 11.1925 25.3124 10.9688 25.3124H3.375C3.15122 25.3124 2.93661 25.2235 2.77838 25.0652C2.62015 24.907 2.53125 24.6924 2.53125 24.4686V12.6561C2.53105 12.5452 2.55271 12.4354 2.59499 12.3329C2.63726 12.2304 2.69932 12.1372 2.77763 12.0587L12.9026 1.93374ZM4.21875 13.0054V23.6249H10.125V16.8749C10.125 16.6511 10.2139 16.4365 10.3721 16.2782C10.5304 16.12 10.745 16.0311 10.9688 16.0311H16.0313C16.255 16.0311 16.4696 16.12 16.6279 16.2782C16.7861 16.4365 16.875 16.6511 16.875 16.8749V23.6249H22.7813V13.0054L13.5 3.72417L4.21875 13.0054Z" fill="white"/>
<path fill-rule="evenodd" clip-rule="evenodd" d="M21.9375 4.21875V10.125L18.5625 6.75V4.21875C18.5625 3.99497 18.6514 3.78036 18.8096 3.62213C18.9679 3.4639 19.1825 3.375 19.4062 3.375H21.0938C21.3175 3.375 21.5321 3.4639 21.6904 3.62213C21.8486 3.78036 21.9375 3.99497 21.9375 4.21875Z" fill="white"/>
</svg>
