<svg width="57" height="57" viewBox="0 0 57 57" fill="none" xmlns="http://www.w3.org/2000/svg">
<path fill-rule="evenodd" clip-rule="evenodd" d="M21.9949 4.21825C22.5562 2.96214 23.4691 1.8954 24.6235 1.14686C25.7778 0.398324 27.1242 0 28.5 0C29.8758 0 31.2222 0.398324 32.3765 1.14686C33.5309 1.8954 34.4438 2.96214 35.0051 4.21825C36.1192 3.40963 37.4437 2.94108 38.8184 2.86925C40.1931 2.79742 41.5593 3.12538 42.7516 3.81348C43.9439 4.50158 44.9113 5.52036 45.5369 6.74662C46.1625 7.97288 46.4194 9.35411 46.2767 10.7233C47.6459 10.5806 49.0271 10.8375 50.2534 11.4631C51.4796 12.0887 52.4984 13.0561 53.1865 14.2484C53.8746 15.4407 54.2026 16.8069 54.1308 18.1816C54.0589 19.5563 53.5904 20.8808 52.7818 21.9949C54.0379 22.5562 55.1046 23.4691 55.8531 24.6235C56.6017 25.7778 57 27.1242 57 28.5C57 29.8758 56.6017 31.2222 55.8531 32.3765C55.1046 33.5309 54.0379 34.4438 52.7818 35.0051C53.5904 36.1192 54.0589 37.4437 54.1308 38.8184C54.2026 40.1931 53.8746 41.5593 53.1865 42.7516C52.4984 43.9439 51.4796 44.9113 50.2534 45.5369C49.0271 46.1625 47.6459 46.4194 46.2767 46.2767C46.4194 47.6459 46.1625 49.0271 45.5369 50.2534C44.9113 51.4796 43.9439 52.4984 42.7516 53.1865C41.5593 53.8746 40.1931 54.2026 38.8184 54.1308C37.4437 54.0589 36.1192 53.5904 35.0051 52.7818C34.4438 54.0379 33.5309 55.1046 32.3765 55.8531C31.2222 56.6017 29.8758 57 28.5 57C27.1242 57 25.7778 56.6017 24.6235 55.8531C23.4691 55.1046 22.5562 54.0379 21.9949 52.7818C20.8808 53.5904 19.5563 54.0589 18.1816 54.1308C16.8069 54.2026 15.4407 53.8746 14.2484 53.1865C13.0561 52.4984 12.0887 51.4796 11.4631 50.2534C10.8375 49.0271 10.5806 47.6459 10.7233 46.2767C9.35411 46.4194 7.97288 46.1625 6.74662 45.5369C5.52036 44.9113 4.50158 43.9439 3.81348 42.7516C3.12538 41.5593 2.79742 40.1931 2.86925 38.8184C2.94108 37.4437 3.40963 36.1192 4.21825 35.0051C2.96214 34.4438 1.8954 33.5309 1.14686 32.3765C0.398324 31.2222 0 29.8758 0 28.5C0 27.1242 0.398324 25.7778 1.14686 24.6235C1.8954 23.4691 2.96214 22.5562 4.21825 21.9949C3.40963 20.8808 2.94108 19.5563 2.86925 18.1816C2.79742 16.8069 3.12538 15.4407 3.81348 14.2484C4.50158 13.0561 5.52036 12.0887 6.74662 11.4631C7.97288 10.8375 9.35411 10.5806 10.7233 10.7233C10.5806 9.35411 10.8375 7.97288 11.4631 6.74662C12.0887 5.52036 13.0561 4.50158 14.2484 3.81348C15.4407 3.12538 16.8069 2.79742 18.1816 2.86925C19.5563 2.94108 20.8808 3.40963 21.9949 4.21825ZM28.5 3.56275C29.4448 3.56275 30.351 3.93808 31.019 4.60617C31.6871 5.27427 32.0625 6.18039 32.0625 7.12522L32.0553 7.23209C31.9974 7.69446 31.9214 8.15437 31.8273 8.61076C31.6528 9.46932 31.3927 10.5416 31.0685 11.7707C30.3205 14.5342 29.5176 17.2826 28.6603 20.0142L28.5 20.5272L28.3397 20.0142C27.4824 17.2826 26.6795 14.5342 25.9315 11.7707C25.6498 10.7245 25.3968 9.67078 25.1727 8.61076C25.0787 8.15555 25.0027 7.69683 24.9447 7.23565C24.9299 6.75921 25.0109 6.28465 25.1828 5.84008C25.3548 5.3955 25.6142 4.98996 25.9457 4.64747C26.2773 4.30498 26.6742 4.0325 27.1129 3.84618C27.5517 3.65985 28.0233 3.56348 28.5 3.56275ZM7.12522 32.0625C6.64493 32.0755 6.16697 31.9912 5.7201 31.8148C5.27322 31.6383 4.86666 31.3732 4.52487 31.0356C4.18308 30.6979 3.91313 30.2946 3.73126 29.8498C3.54939 29.4051 3.45935 28.9282 3.46656 28.4478C3.47377 27.9674 3.57809 27.4934 3.77323 27.0544C3.96838 26.6153 4.25031 26.2203 4.60209 25.893C4.95386 25.5658 5.36819 25.3131 5.82017 25.1501C6.27214 24.9871 6.75241 24.9172 7.23209 24.9447L7.55627 24.9803C7.83058 25.023 8.18327 25.0836 8.61076 25.1727C9.46932 25.3472 10.5416 25.6073 11.7707 25.9315C14.5342 26.6795 17.2826 27.4824 20.0142 28.3397L20.5272 28.5L20.0142 28.6603C17.1642 29.5438 14.2216 30.4202 11.7707 31.0685C10.5416 31.3927 9.46932 31.6528 8.61076 31.8273C8.15555 31.9213 7.69683 31.9974 7.23565 32.0553L7.12522 32.0625ZM32.0625 49.8748C32.0625 50.8196 31.6871 51.7257 31.019 52.3938C30.351 53.0619 29.4448 53.4373 28.5 53.4373C27.5552 53.4373 26.6491 53.0619 25.981 52.3938C25.3129 51.7257 24.9375 50.8196 24.9375 49.8748L24.9447 49.7679C25.0027 49.3067 25.0787 48.848 25.1727 48.3928C25.3472 47.5307 25.6073 46.4584 25.9315 45.2293C26.5798 42.7784 27.4562 39.8393 28.3397 36.9858L28.5 36.4728L28.6603 36.9858C29.5438 39.8358 30.4202 42.7784 31.0685 45.2293C31.3927 46.4584 31.6528 47.5307 31.8273 48.3892C31.9212 48.8445 31.9973 49.3032 32.0553 49.7644L32.0625 49.8748ZM11.7707 42.2725C10.9529 42.7374 9.98437 42.8601 9.0765 42.6136C8.16864 42.3671 7.39512 41.7715 6.92474 40.9569C6.45437 40.1422 6.32532 39.1745 6.56578 38.265C6.80623 37.3555 7.39665 36.5781 8.20821 36.1023L8.30439 36.0524C8.37564 36.0168 8.47539 35.9776 8.60364 35.9242C8.93604 35.7931 9.27225 35.672 9.61182 35.5608C10.4419 35.2829 11.4999 34.973 12.7254 34.6417C15.4939 33.9071 18.2767 33.2278 21.0723 32.604L21.5959 32.4864L21.229 32.8783C19.2937 34.9888 17.3149 37.059 15.2939 39.0876C14.3926 39.9854 13.5947 40.7442 12.9427 41.3284C12.5934 41.637 12.2321 41.9317 11.8597 42.2119L11.7707 42.2725ZM16.0314 50.0957C16.8496 50.5681 17.822 50.6961 18.7346 50.4515C19.6472 50.207 20.4253 49.61 20.8977 48.7918L20.9476 48.6956C20.9832 48.6244 21.0224 48.5246 21.0758 48.3964C21.2069 48.064 21.328 47.7278 21.4392 47.3882C21.7171 46.5581 22.027 45.5001 22.3583 44.2746C23.0929 41.5061 23.7722 38.7233 24.396 35.9277L24.5136 35.4041L24.1217 35.7674C22.0129 37.7058 19.9427 39.6857 17.9124 41.7061C17.1446 42.4697 16.3974 43.2537 15.6716 44.0573C15.3632 44.4067 15.0685 44.768 14.7881 45.1403L14.7275 45.2293C14.2551 46.0476 14.1271 47.0199 14.3716 47.9325C14.6161 48.8451 15.2132 49.6232 16.0314 50.0957ZM48.7918 20.8977C49.6034 20.4219 50.1938 19.6445 50.4342 18.735C50.6747 17.8255 50.5456 16.8578 50.0753 16.0432C49.6049 15.2285 48.8314 14.6329 47.9235 14.3864C47.0156 14.1399 46.0471 14.2626 45.2293 14.7275L45.1403 14.7881C44.769 15.0682 44.4089 15.363 44.0608 15.6716C43.2556 16.3969 42.4704 17.1441 41.7061 17.9124C39.6856 19.9415 37.7057 22.0105 35.7674 24.1182L35.4041 24.5136L35.9277 24.396C38.7221 23.7722 41.5037 23.0928 44.271 22.3583C45.5001 22.027 46.5581 21.7171 47.3882 21.4392C47.8303 21.2925 48.2664 21.1285 48.6956 20.9476C48.7281 20.9319 48.7602 20.9152 48.7918 20.8977ZM40.9686 6.90434C41.7868 7.37677 42.3839 8.15487 42.6284 9.06748C42.8729 9.98008 42.7449 10.9524 42.2725 11.7707L42.2119 11.8597C41.9316 12.2309 41.6369 12.591 41.3284 12.9392C40.6027 13.744 39.8555 14.5292 39.0876 15.2939C37.0586 17.3144 34.9896 19.2944 32.8818 21.2326L32.4864 21.5959L32.604 21.0723C33.2278 18.2779 33.9072 15.4963 34.6417 12.729C34.973 11.4999 35.2829 10.4419 35.5608 9.61182C35.7077 9.16983 35.8717 8.73369 36.0524 8.30439L36.1023 8.20821C36.5747 7.39 37.3528 6.79298 38.2654 6.54846C39.178 6.30394 40.1504 6.43195 40.9686 6.90434ZM49.8748 32.0625C50.8196 32.0625 51.7257 31.6871 52.3938 31.019C53.0619 30.351 53.4373 29.4448 53.4373 28.5C53.4373 27.5552 53.0619 26.6491 52.3938 25.981C51.7257 25.3129 50.8196 24.9375 49.8748 24.9375L49.7679 24.9447C49.3067 25.0027 48.848 25.0787 48.3928 25.1727C47.5307 25.3472 46.4584 25.6073 45.2293 25.9315C42.7784 26.5798 39.8393 27.4562 36.9858 28.3397L36.4728 28.5L36.9858 28.6603C39.8358 29.5438 42.7784 30.4202 45.2293 31.0685C46.4584 31.3927 47.5307 31.6528 48.3892 31.8273C48.8445 31.9213 49.3032 31.9973 49.7644 32.0553L49.8748 32.0625ZM6.90434 16.0314C6.6664 16.4444 6.51376 16.901 6.45546 17.374C6.39716 17.8471 6.43439 18.3271 6.56494 18.7855C6.69549 19.2439 6.91671 19.6715 7.21549 20.0429C7.51428 20.4142 7.88456 20.7219 8.30439 20.9476L8.60364 21.0723C8.86014 21.1791 9.19501 21.3003 9.61182 21.4392C10.4419 21.7171 11.4999 22.027 12.7254 22.3583C15.494 23.0926 18.2768 23.772 21.0723 24.396L21.5959 24.5136L21.229 24.1182C19.292 22.0104 17.3133 19.9414 15.2939 17.9124C14.5307 17.1442 13.7467 16.397 12.9427 15.6716C12.5934 15.363 12.2322 15.0683 11.8597 14.7881L11.7707 14.7275C10.9524 14.2551 9.98008 14.1271 9.06748 14.3716C8.15487 14.6161 7.37677 15.2132 6.90434 16.0314ZM14.7275 11.7707C14.4848 11.3615 14.3265 10.9078 14.262 10.4364C14.1975 9.96502 14.228 9.48549 14.3519 9.02612C14.4757 8.56674 14.6903 8.13682 14.983 7.76173C15.2757 7.38664 15.6405 7.07398 16.056 6.8422C16.4715 6.61041 16.9292 6.46421 17.4022 6.4122C17.8751 6.3602 18.3536 6.40345 18.8096 6.53941C19.2655 6.67536 19.6896 6.90127 20.0568 7.2038C20.424 7.50632 20.7269 7.87934 20.9476 8.30083C20.9832 8.37208 21.0224 8.47183 21.0758 8.60008C21.1791 8.85657 21.3003 9.19145 21.4392 9.60825C21.7171 10.4383 22.027 11.4964 22.3583 12.7254C23.0209 15.1728 23.737 18.1546 24.396 21.0687L24.5136 21.5924L24.1217 21.229C22.0127 19.2909 19.9425 17.3109 17.9124 15.2904C17.1442 14.5272 16.397 13.7431 15.6716 12.9392C15.363 12.5899 15.0683 12.2286 14.7881 11.8562L14.7275 11.7671V11.7707ZM50.0957 40.9686C49.6232 41.7868 48.8451 42.3839 47.9325 42.6284C47.0199 42.8729 46.0476 42.7449 45.2293 42.2725L45.1403 42.2119C44.7689 41.9318 44.4089 41.6371 44.0608 41.3284C43.2557 40.6031 42.4704 39.8559 41.7061 39.0876C39.6856 37.0585 37.7057 34.9895 35.7674 32.8818L35.4041 32.4864L35.9277 32.604C38.8418 33.263 41.8236 33.9791 44.271 34.6417C45.5001 34.973 46.5581 35.2829 47.3882 35.5608C47.8303 35.7075 48.2664 35.8715 48.6956 36.0524C49.1157 36.2778 49.4864 36.5852 49.7855 36.9565C50.0847 37.3277 50.3062 37.7552 50.4371 38.2137C50.568 38.6721 50.6056 39.1522 50.5475 39.6254C50.4895 40.0986 50.337 40.5554 50.0992 40.9686H50.0957ZM36.1023 48.7918C36.5781 49.6034 37.3555 50.1938 38.265 50.4342C39.1745 50.6747 40.1422 50.5456 40.9569 50.0753C41.7715 49.6049 42.3671 48.8314 42.6136 47.9235C42.8601 47.0156 42.7374 46.0471 42.2725 45.2293L42.2119 45.1403C41.9315 44.7692 41.6367 44.4091 41.3284 44.0608C40.6031 43.2557 39.8559 42.4704 39.0876 41.7061C37.0587 39.6855 34.9897 37.7055 32.8818 35.7674L32.4864 35.4041L32.604 35.9277C33.2278 38.7221 33.9072 41.5037 34.6417 44.271C34.973 45.5001 35.2829 46.5581 35.5608 47.3882C35.7075 47.8303 35.8715 48.2664 36.0524 48.6956C36.0682 48.7281 36.0848 48.7602 36.1023 48.7918ZM28.5 33.8437C29.9172 33.8437 31.2764 33.2807 32.2786 32.2786C33.2807 31.2764 33.8437 29.9172 33.8437 28.5C33.8437 27.0828 33.2807 25.7236 32.2786 24.7214C31.2764 23.7193 29.9172 23.1563 28.5 23.1563C27.0828 23.1563 25.7236 23.7193 24.7214 24.7214C23.7193 25.7236 23.1563 27.0828 23.1563 28.5C23.1563 29.9172 23.7193 31.2764 24.7214 32.2786C25.7236 33.2807 27.0828 33.8437 28.5 33.8437Z" fill="white"/>
</svg>
